<svg viewBox="0 0 119 104" fill="none" xmlns="http://www.w3.org/2000/svg"><defs/><path d="M17 44.1s20-5 41.3-2c6 .9 11.2 4.3 14.4 9.4 5.8 9.1 14 25.4 12.3 42.4l-9.1 2.2S69.6 76 62.5 67.8c0 0-8.4 19-8 29.5l.1.8c1 10.3-40.2 2-40.2 2l2.7-56z" fill="url(#paint0_linear)"/><path d="M38.7 27l-4.2 13.6a3 3 0 001 3.4c2.2 1.7 6.7 4.5 12.3 4.4a2 2 0 001.9-1.9l1.5-22.6L38.7 27z" fill="url(#paint1_linear)"/><path d="M55.2 12.2s1.7 10.7.6 15.8c-1 5-.8 8.6-6.9 8a12.8 12.8 0 01-11.5-10.3S35.2 16.9 37 14c1.8-3 18.2-1.8 18.2-1.8z" fill="url(#paint2_linear)"/><path d="M40.3 22.6l.7.2s-1.4-7 1.6-7.4c3-.4 14 .2 17.3-3 3.2-3 2.4-8.1-.1-10.2a.4.4 0 00-.6 0l-.3.5c-.3.2-.7 0-.8-.3 0-.3-.4-.5-.6-.3-1 1-3.4 2.3-8.7 1.9-7.6-.6-13 1-14.5 6 0 .3-.5.4-.7.2-.4-.5-1.3-.9-2.6-.2-2.4 1.1-2.8 5.6.6 10.3.2.2.1.5-.2.6-.9.3-2.4 1.2.2 3.6 2.7 2.5 4.6 2.8 5.3 2.8.2 0 .4-.1.4-.3l1-4.5c0-.2.2-.4.4-.3l1.6.4z" fill="url(#paint3_linear)"/><path d="M40.2 23.6s0-6.6-3.1-5.6c-3.3 1-.4 7.3 1.7 8l1.4-2.4z" fill="url(#paint4_linear)"/><path d="M17.2 84.9c-.9-6.3 5.6-15.5 8.3-19 .7-1 1.2-2.2 1.2-3.4A20 20 0 0017 44S-4.6 69.3.9 88.6c.6 2.1 1.5 4 2.7 5.5.9-7.3 9.3-9 13.6-9.2z" fill="url(#paint5_linear)"/><path d="M17.6 82.4h-.8c.7-6.2 6-13.8 8.3-16.7l.7.5a40.2 40.2 0 00-8.2 16.2z" fill="url(#paint6_linear)"/><path d="M17.3 85.7l-.1-.8c-4.3.3-12.7 1.9-13.6 9.2 9.7 12.7 36.3 8.1 36.3 8.1v-5s-20.5-3.7-22.6-11.5z" fill="url(#paint7_linear)"/><path d="M37.4 100.9s3.9-9.3 10.8-6c7 3.3 6.4 5.4 6.4 5.4l-17.2.6z" fill="url(#paint8_linear)"/><path d="M36.5 102.8c0 .7.6 1.2 1.3 1.2l36-1.3c.5 0 1-.3 1.2-.9l1-3.3c.3-.8-.3-1.7-1.2-1.7l-13-.7h-.4l-23.9 5.3c-.6.1-1 .7-1 1.4z" fill="url(#paint9_linear)"/><path d="M60.6 101.5l1-4.6 13.4.6-.9 3.8-13.5.2z" fill="url(#paint10_linear)"/><path d="M53.7 52l-5.2 38.7c-.2 1 .7 1.9 1.7 1.8l58.1-1.6c.8 0 1.4-.6 1.6-1.3l9-40.7c.3-1-.6-2-1.7-2l-62 3.7c-.8 0-1.4.6-1.5 1.4z" fill="url(#paint11_linear)"/><path d="M77 77.5l-8.6 24.3 20 .4 1.7-24.6a2 2 0 00-2-2l-9.4.6a2 2 0 00-1.7 1.3z" fill="url(#paint12_linear)"/><path d="M60.3 102.2a1 1 0 001 1.3h31.3c.6 0 1-.4 1-1V101c0-.5-.4-1-1-1l-31.3 1.4a1 1 0 00-1 .7z" fill="url(#paint13_linear)"/><path d="M52.8 77.7h-.4L55.2 55a3 3 0 012.8-2.5l53.6-3.2v.4L58 53c-1.2 0-2.2 1-2.4 2.2l-2.8 22.5zM51.6 84L51 89h.4l.6-4.8h-.4z" fill="#91B3FA"/><path d="M49.5 30.5c-6.4.5-10.2-6.2-10.2-6.3l.4-.2s3.7 6.4 9.8 6v.5z" fill="url(#paint14_linear)"/><path d="M52.2 30.2c0 .4-.3.7-.7.7h-1.9a.7.7 0 01-.7-.7c0-.4.3-.7.7-.7h1.9c.3 0 .7.3.7.7z" fill="url(#paint15_linear)"/><path d="M39.7 16.8S42 5 49 3.8c0 0-2-1-4 .1A17 17 0 0038 17.1c1.4.5 1.7-.3 1.7-.3z" fill="url(#paint16_linear)"/><path d="M38.5 16.3c-3.5.7-3 5.2-3 5.2-.3 3.2.6 4.8 1.8 5.6.9.5 2 .6 2.8.1.9-.4 1.5-1.3 1.5-2.3l.2-2c.2-.7.3-7.3-3.3-6.6z" fill="url(#paint17_linear)"/><path d="M38.9 17.4c-.8-.1-1.5.3-1.8 1-2.1 4.8.5 8 1.8 8.1 1.3 0 1.3-6.4 1-8-.1-.7-.6-1-1-1.1z" fill="url(#paint18_linear)"/><defs><linearGradient id="paint0_linear" x1="-1.2" y1="52.2" x2="134.9" y2="186.9" gradientUnits="userSpaceOnUse"><stop stop-color="#2D2D2D"/><stop offset="1" stop-color="#5A5A5A"/></linearGradient><linearGradient id="paint1_linear" x1="35.3" y1="61" x2="45" y2="34.5" gradientUnits="userSpaceOnUse"><stop stop-color="#FEBBBA"/><stop offset="1" stop-color="#FF928E"/></linearGradient><linearGradient id="paint2_linear" x1="53.9" y1="20.8" x2="25.2" y2="32.9" gradientUnits="userSpaceOnUse"><stop stop-color="#FEBBBA"/><stop offset="1" stop-color="#FF928E"/></linearGradient><linearGradient id="paint3_linear" x1="21.8" y1="6.5" x2="76.9" y2="68.7" gradientUnits="userSpaceOnUse"><stop stop-color="#2D2D2D"/><stop offset="1" stop-color="#5A5A5A"/></linearGradient><linearGradient id="paint4_linear" x1="51.9" y1="16.2" x2="23.3" y2="28.2" gradientUnits="userSpaceOnUse"><stop stop-color="#FEBBBA"/><stop offset="1" stop-color="#FF928E"/></linearGradient><linearGradient id="paint5_linear" x1="-5.9" y1="53" x2="77.7" y2="91.7" gradientUnits="userSpaceOnUse"><stop stop-color="#2D2D2D"/><stop offset="1" stop-color="#5A5A5A"/></linearGradient><linearGradient id="paint6_linear" x1="62.8" y1="49.7" x2="42.8" y2="61.5" gradientUnits="userSpaceOnUse"><stop stop-color="#3A3A3A"/><stop offset="1" stop-color="#0C0C0C"/></linearGradient><linearGradient id="paint7_linear" x1="14.9" y1="77.7" x2="30.6" y2="119.2" gradientUnits="userSpaceOnUse"><stop stop-color="#FEBBBA"/><stop offset="1" stop-color="#FF928E"/></linearGradient><linearGradient id="paint8_linear" x1="34.5" y1="70.3" x2="50.2" y2="111.8" gradientUnits="userSpaceOnUse"><stop stop-color="#FEBBBA"/><stop offset="1" stop-color="#FF928E"/></linearGradient><linearGradient id="paint9_linear" x1="62.7" y1="92.5" x2="61.9" y2="104" gradientUnits="userSpaceOnUse"><stop stop-color="#4799E3"/><stop offset="1" stop-color="#0072D9"/></linearGradient><linearGradient id="paint10_linear" x1="70.2" y1="94.8" x2="69.4" y2="101.4" gradientUnits="userSpaceOnUse"><stop stop-color="#4799E3"/><stop offset="1" stop-color="#0072D9"/></linearGradient><linearGradient id="paint11_linear" x1="95.3" y1="26" x2="80.4" y2="89.2" gradientUnits="userSpaceOnUse"><stop stop-color="#4799E3"/><stop offset="1" stop-color="#0072D9"/></linearGradient><linearGradient id="paint12_linear" x1="82.8" y1="63.3" x2="68.2" y2="95.8" gradientUnits="userSpaceOnUse"><stop stop-color="#4799E3"/><stop offset="1" stop-color="#0072D9"/></linearGradient><linearGradient id="paint13_linear" x1="82.4" y1="98.6" x2="82.2" y2="103.5" gradientUnits="userSpaceOnUse"><stop stop-color="#4799E3"/><stop offset="1" stop-color="#0072D9"/></linearGradient><linearGradient id="paint14_linear" x1="46.1" y1="21" x2="44" y2="30" gradientUnits="userSpaceOnUse"><stop stop-color="#4799E3"/><stop offset="1" stop-color="#0072D9"/></linearGradient><linearGradient id="paint15_linear" x1="51.1" y1="28.9" x2="50.8" y2="30.9" gradientUnits="userSpaceOnUse"><stop stop-color="#4799E3"/><stop offset="1" stop-color="#0072D9"/></linearGradient><linearGradient id="paint16_linear" x1="45.2" y1="-2.9" x2="37.5" y2="13.8" gradientUnits="userSpaceOnUse"><stop stop-color="#4799E3"/><stop offset="1" stop-color="#0072D9"/></linearGradient><linearGradient id="paint17_linear" x1="39.7" y1="11" x2="32.2" y2="22.9" gradientUnits="userSpaceOnUse"><stop stop-color="#4799E3"/><stop offset="1" stop-color="#0072D9"/></linearGradient><linearGradient id="paint18_linear" x1="38.8" y1="13.2" x2="32.2" y2="20.7" gradientUnits="userSpaceOnUse"><stop stop-color="#055DAC"/><stop offset="1" stop-color="#0072D9"/></linearGradient></defs></svg>