<svg viewBox="0 0 119 104" fill="none" xmlns="http://www.w3.org/2000/svg"><defs/><g clip-path="url(#clip0)"><path d="M76.5 69.1c1.7.4 11.3 6 11.3-.5v-7.3S76 69 76.5 69.1z" fill="url(#paint0_linear)"/><path d="M82.6 56.8s-4.2-7.1-4.8-14.1c-.5-7 .4-10-.4-12.1-.8-2-4.6-9.8-4.8-7.5a9.6 9.6 0 001.2 4.8s-2.4 2-2 4.2c.4 2.2 1.3 2.4 1.3 2.4s.1 4.9.3 4.9c.2 0-3.8 24.3.7 24.8 4.6.6 8.3 3.8 8.5-7.4z" fill="url(#paint1_linear)"/><path d="M70.6 30.4c0-.4-3-6.8-2.5-7.5.5-.8 1-1.4 1.9.8.8 2.1 1.8 8 1.5 8-.3.1-.8-.2-1-1.3z" fill="url(#paint2_linear)"/><path d="M43 100.5s-2.3-1.8-5.3-1.6c-2 .4-4.5 2.2-6 3.6-.3.2-.4.6-.2 1 0 .3.4.5.8.5 3.9-.1 11.4-.3 11.4-1s-.8-2.5-.8-2.5z" fill="url(#paint3_linear)"/><path d="M44.5 97.3l-1.8 3.3s-4 .3-3.9-1.2c.1-1.6 1.1-3.5 1.1-3.5l4.6 1.4z" fill="url(#paint4_linear)"/><path d="M89.9 99.5c-2.8-15.2-4.9-25-4.9-25s-30.8-20-34-15C48 64.2 38.8 97.5 38.8 97.5l6 1.7s11.6-15.7 12.6-29c3 9.7 5.8 33 28.7 33.7 1 0 2.2-.5 3-1.3.7-.9 1-2 .8-3.2z" fill="url(#paint5_linear)"/><path d="M23.1 99.2l-3.7 3.5-2.9-3 3.9-4.4 2.7 3.9z" fill="url(#paint6_linear)"/><path d="M104.3 23.2l3 11.4c.2.5 0 1-.4 1.4a10.6 10.6 0 01-10.7 1.2c-.6-.3-1-1-1-1.6l-.8-10 9.9-2.4z" fill="url(#paint7_linear)"/><path d="M86.3 14s.6 10.8 4.4 14.4c3.8 3.6 11.9 1.8 15.3-6l-4.2-14.1L86.3 14z" fill="url(#paint8_linear)"/><path d="M100.6 18a.5.5 0 01-.7-.6c0-1-.2-3-.9-4.3 0 0 .5-1.4-3.5.4-4.1 1.8-10.3 4.4-13.5 2.2-3.3-2-5.9-11.4 2.9-9 .3.1.6-.1.6-.5 0-1.5.5-4.9 4-5.7 3.4-.7 5 .9 5.7 1.8.2.3.5.3.8 0 1-1.1 4-3.6 7.6-1.5 3.1 1.7 3.4 3.7 3.3 4.9 0 .4.3.7.7.6 1-.4 2.6-.5 4 1.5 1.8 2.8-1.4 4.8-2.3 5.3-.2.1-.3.3-.3.4-.1 1.4-.6 7.5-3.8 10.6-.3.2-1 0-1.2-.4l-1.8-5.7c0-.2-.3-.4-.6-.3l-1 .2z" fill="url(#paint9_linear)"/><path d="M100.1 18.7s2-5.6 3.9-3.5c2 2-1 5.8-3.6 6.4l-.3-2.9z" fill="url(#paint10_linear)"/><path d="M86.3 53.8s-14.1 6-16.7 2.9c-2.7-3-1.2-20-1.2-20l-6-1.7s-7.2 30.1 5.1 34.6c9 3.3 26.2-7.4 26.2-7.4l-7.4-8.4z" fill="url(#paint11_linear)"/><path d="M99.5 33.2c-2.3.5-4.8 2.7-6.7 4.8a16.8 16.8 0 00-4.3 8.6v.3A43.4 43.4 0 0176.4 57c5 7.3 7.8 10 7.8 10s.6 0 1.6-.3c-1 8.6-1.5 15.3-1.5 15.3s10 10 22 12.7c11-8 12.7-31.2 12.7-31.2.8-27.5-11.8-32-19.5-30.3z" fill="url(#paint12_linear)"/><path d="M106.3 94.7s-5 14.8-29.3 6.5C65.2 97.2 48.6 74 48.6 74s-4 11.2-25.4 26.3L18.4 96S40 58.7 51.1 62.5c11 4 58.6 22.7 55.2 32.2z" fill="url(#paint13_linear)"/><path d="M21.2 101c-.9 0-4.7-1.7-4.7-1.7l-3.5 1c-3-.5-5.7.5-7.5 1.6A1 1 0 005 103c.1.5.5.8 1 .8h12.1c4.4-.3 5-.2 3.1-2.8z" fill="url(#paint14_linear)"/><path d="M90.6 65.6h.1c.2-.1 15.2-4 18-15.3 0-.2-.1-.4-.3-.4-.2 0-.4 0-.4.2-2.6 11-17.3 14.7-17.4 14.8-.2 0-.3.2-.3.4l.3.3z" fill="url(#paint15_linear)"/><path d="M59.3 21.3A1 1 0 0160 20l6.9-1.3c.2 0 .5 0 .6.3l5.3 17.1v.2l-.2.2-5.8 1.7a1 1 0 01-1.1-.6l-6.4-16.3z" fill="url(#paint16_linear)"/><path d="M61.5 21.4V21c.1-.2.2-.3.4-.3l4.5-.7c.3 0 .6 0 .6.3L71.5 35v.2l-.2.1-4 1c-.2 0-.3 0-.4-.2l-5.4-14.6z" fill="url(#paint17_linear)"/><path d="M63.7 20s0 .1.2 0l1.5-.2s.2-.1.1-.2c0 0 0-.1-.2 0l-1.5.2-.1.2z" fill="url(#paint18_linear)"/><path d="M62.4 35.4c-.1-.8-2.7-5.6-1.7-7.5 1-1.8 1.4-5 2.4-4 1 .8-.3 3.9.2 4.8.4 1 2 3.3 2.2 5.1.3 1.9 1.5 4.5-1 4.8-2.7.4-2.1-3.2-2.1-3.2z" fill="url(#paint19_linear)"/><path d="M89.5 46.5c.1 0 .2 0 .3-.2 1.9-2.8 7.5-9.8 10.5-8.5.2 0 .4 0 .5-.2 0-.2 0-.4-.2-.4-4.1-1.8-11 8.3-11.4 8.7l.1.5h.2z" fill="url(#paint20_linear)"/><path d="M73.8 37c-1.3-1.7-.5-3.8-.1-4.6v-.1c-.2-.5-.7-2.1-.5-3.2 0-.3.3-.4.4-.4.2 0 .7-.2 2.4 2.5l-.1.5-.5-.1c-.5-.9-1.2-1.8-1.6-2.2 0 1 .5 2.5.6 2.6l-.1.7c-.3.7-1 2.5 0 3.9.2.2.1.4 0 .5h-.5zm0-4.6z" fill="url(#paint21_linear)"/></g><defs><linearGradient id="paint0_linear" x1="85.9" y1="63.8" x2="78.1" y2="75.5" gradientUnits="userSpaceOnUse"><stop stop-color="#E1473D"/><stop offset="1" stop-color="#E9605A"/></linearGradient><linearGradient id="paint1_linear" x1="76.7" y1="41.7" x2="77.4" y2="59.3" gradientUnits="userSpaceOnUse"><stop stop-color="#FEBBBA"/><stop offset="1" stop-color="#FF928E"/></linearGradient><linearGradient id="paint2_linear" x1="72.2" y1="23.3" x2="64" y2="37.1" gradientUnits="userSpaceOnUse"><stop stop-color="#FEBBBA"/><stop offset="1" stop-color="#FF928E"/></linearGradient><linearGradient id="paint3_linear" x1="42" y1="97.4" x2="33" y2="108.7" gradientUnits="userSpaceOnUse"><stop stop-color="#09005D"/><stop offset="1" stop-color="#1A0F91"/></linearGradient><linearGradient id="paint4_linear" x1="43.7" y1="95.2" x2="38.4" y2="101.8" gradientUnits="userSpaceOnUse"><stop stop-color="#FEBBBA"/><stop offset="1" stop-color="#FF928E"/></linearGradient><linearGradient id="paint5_linear" x1="72.7" y1="37.8" x2="53.3" y2="97.9" gradientUnits="userSpaceOnUse"><stop stop-color="#4799E3"/><stop offset="1" stop-color="#0072D9"/></linearGradient><linearGradient id="paint6_linear" x1="18.4" y1="94.3" x2="21.7" y2="105.9" gradientUnits="userSpaceOnUse"><stop stop-color="#FEBBBA"/><stop offset="1" stop-color="#FF928E"/></linearGradient><linearGradient id="paint7_linear" x1="101.7" y1="39" x2="100.1" y2="24.6" gradientUnits="userSpaceOnUse"><stop stop-color="#FEBBBA"/><stop offset="1" stop-color="#FF928E"/></linearGradient><linearGradient id="paint8_linear" x1="93" y1="26" x2="101.2" y2="5.7" gradientUnits="userSpaceOnUse"><stop stop-color="#FEBBBA"/><stop offset="1" stop-color="#FF928E"/></linearGradient><linearGradient id="paint9_linear" x1="100.9" y1="-11.1" x2="92.2" y2="22" gradientUnits="userSpaceOnUse"><stop stop-color="#4799E3"/><stop offset="1" stop-color="#0072D9"/></linearGradient><linearGradient id="paint10_linear" x1="98" y1="28.9" x2="106.2" y2="8.6" gradientUnits="userSpaceOnUse"><stop stop-color="#FEBBBA"/><stop offset="1" stop-color="#FF928E"/></linearGradient><linearGradient id="paint11_linear" x1="66.9" y1="24.9" x2="85.1" y2="88.3" gradientUnits="userSpaceOnUse"><stop stop-color="#FEBBBA"/><stop offset="1" stop-color="#FF928E"/></linearGradient><linearGradient id="paint12_linear" x1="66.9" y1="43.9" x2="186.4" y2="115.5" gradientUnits="userSpaceOnUse"><stop stop-color="#2D2D2D"/><stop offset="1" stop-color="#5A5A5A"/></linearGradient><linearGradient id="paint13_linear" x1="76.8" y1="43.2" x2="66.7" y2="102.2" gradientUnits="userSpaceOnUse"><stop stop-color="#4799E3"/><stop offset="1" stop-color="#0072D9"/></linearGradient><linearGradient id="paint14_linear" x1="12.2" y1="98" x2="15.3" y2="108.8" gradientUnits="userSpaceOnUse"><stop stop-color="#09005D"/><stop offset="1" stop-color="#1A0F91"/></linearGradient><linearGradient id="paint15_linear" x1="90.3" y1="57.7" x2="108.7" y2="57.7" gradientUnits="userSpaceOnUse"><stop stop-color="#262626"/><stop offset="1" stop-color="#121212"/></linearGradient><linearGradient id="paint16_linear" x1="56.2" y1="22.1" x2="94.1" y2="44.9" gradientUnits="userSpaceOnUse"><stop stop-color="#2D2D2D"/><stop offset="1" stop-color="#5A5A5A"/></linearGradient><linearGradient id="paint17_linear" x1="68.1" y1="12.5" x2="57.7" y2="30.2" gradientUnits="userSpaceOnUse"><stop stop-color="#4799E3"/><stop offset="1" stop-color="#0072D9"/></linearGradient><linearGradient id="paint18_linear" x1="64.1" y1="19.6" x2="65.1" y2="21.1" gradientUnits="userSpaceOnUse"><stop stop-color="#8D55D1"/><stop offset="1" stop-color="#1C2873"/></linearGradient><linearGradient id="paint19_linear" x1="63.6" y1="36.3" x2="67" y2="70.6" gradientUnits="userSpaceOnUse"><stop stop-color="#FEBBBA"/><stop offset="1" stop-color="#FF928E"/></linearGradient><linearGradient id="paint20_linear" x1="89.2" y1="41.7" x2="100.8" y2="41.7" gradientUnits="userSpaceOnUse"><stop stop-color="#282828"/><stop offset="1" stop-color="#222"/></linearGradient><linearGradient id="paint21_linear" x1="73.1" y1="32.9" x2="76" y2="32.9" gradientUnits="userSpaceOnUse"><stop stop-color="#FF928E"/><stop offset="1" stop-color="#FE7062"/></linearGradient><clipPath id="clip0"><path fill="#fff" d="M0 0h119v104H0z"/></clipPath></defs></svg>